<svg width="158" height="26" viewBox="0 0 158 26" fill="none" xmlns="http://www.w3.org/2000/svg">
<g filter="url(#filter0_d_0_65)">
<path d="M11.6 5.86C12.9467 5.86 14.0267 6.26667 14.84 7.08C15.6667 7.89333 16.08 9.12 16.08 10.76V17H11.56V11.54C11.56 10.2867 11.1133 9.66 10.22 9.66C9.71333 9.66 9.3 9.84 8.98 10.2C8.67333 10.5467 8.52 11.1 8.52 11.86V17H4V6.06H8.3V7.14C8.72667 6.71333 9.22 6.39333 9.78 6.18C10.34 5.96667 10.9467 5.86 11.6 5.86ZM29.8783 11.52C29.8783 11.5867 29.8583 11.94 29.8183 12.58H22.2183C22.3783 12.9933 22.6449 13.3133 23.0183 13.54C23.3916 13.7533 23.8583 13.86 24.4183 13.86C24.8983 13.86 25.2983 13.8 25.6183 13.68C25.9516 13.56 26.3116 13.3533 26.6983 13.06L29.0583 15.44C27.9916 16.6133 26.3983 17.2 24.2783 17.2C22.9583 17.2 21.7983 16.96 20.7983 16.48C19.7983 15.9867 19.0249 15.3067 18.4783 14.44C17.9316 13.5733 17.6583 12.6 17.6583 11.52C17.6583 10.4267 17.9249 9.45333 18.4583 8.6C19.0049 7.73333 19.7449 7.06 20.6783 6.58C21.6249 6.1 22.6849 5.86 23.8583 5.86C24.9649 5.86 25.9716 6.08 26.8783 6.52C27.7983 6.96 28.5249 7.60667 29.0583 8.46C29.6049 9.31333 29.8783 10.3333 29.8783 11.52ZM23.8983 8.94C23.4316 8.94 23.0449 9.06667 22.7383 9.32C22.4316 9.57333 22.2316 9.93333 22.1383 10.4H25.6583C25.5649 9.94667 25.3649 9.59333 25.0583 9.34C24.7516 9.07333 24.3649 8.94 23.8983 8.94ZM39.3647 16.62C38.6847 17.0067 37.758 17.2 36.5847 17.2C35.0514 17.2 33.8714 16.8333 33.0447 16.1C32.218 15.3533 31.8047 14.24 31.8047 12.76V9.96H30.3047V6.66H31.8047V3.6H36.3247V6.66H38.5647V9.96H36.3247V12.72C36.3247 13.0533 36.4114 13.3133 36.5847 13.5C36.758 13.6867 36.9847 13.78 37.2647 13.78C37.6514 13.78 37.9914 13.68 38.2847 13.48L39.3647 16.62ZM45.1886 6.66H47.5686V9.96H45.3286V17H40.8086V9.96H39.3086V6.66H40.8086V6.6C40.8086 5.17333 41.2353 4.04667 42.0886 3.22C42.9419 2.38 44.1419 1.96 45.6886 1.96C46.1953 1.96 46.6886 2.00667 47.1686 2.1C47.6486 2.19333 48.0486 2.32667 48.3686 2.5L47.2886 5.64C46.9153 5.46667 46.5753 5.38 46.2686 5.38C45.9353 5.38 45.6686 5.48667 45.4686 5.7C45.2819 5.9 45.1886 6.21333 45.1886 6.64V6.66ZM48.8286 2.16H53.3486V17H48.8286V2.16ZM55.3477 6.06H59.8677V17H55.3477V6.06ZM57.6077 5.18C56.7943 5.18 56.1343 4.96667 55.6277 4.54C55.1343 4.1 54.8877 3.54667 54.8877 2.88C54.8877 2.21333 55.1343 1.66667 55.6277 1.24C56.1343 0.799999 56.7943 0.579999 57.6077 0.579999C58.4343 0.579999 59.0943 0.786666 59.5877 1.2C60.081 1.61333 60.3277 2.14667 60.3277 2.8C60.3277 3.49333 60.081 4.06667 59.5877 4.52C59.0943 4.96 58.4343 5.18 57.6077 5.18ZM68.7711 17L67.2711 14.66L65.5911 17H60.6911L64.8311 11.58L60.8111 6.06H65.9111L67.4711 8.38L69.1111 6.06H73.8511L69.8311 11.38L73.9511 17H68.7711ZM77.4217 8.18C77.7551 7.56667 78.2484 7.1 78.9017 6.78C79.5551 6.46 80.3484 6.3 81.2817 6.3V8.16C81.1751 8.14667 81.0284 8.14 80.8417 8.14C79.8017 8.14 78.9817 8.45333 78.3817 9.08C77.7951 9.69333 77.5017 10.5733 77.5017 11.72V17H75.5817V6.4H77.4217V8.18ZM88.0905 17.12C87.0371 17.12 86.0905 16.8867 85.2505 16.42C84.4105 15.9533 83.7505 15.3133 83.2705 14.5C82.8038 13.6733 82.5705 12.74 82.5705 11.7C82.5705 10.66 82.8038 9.73333 83.2705 8.92C83.7505 8.09333 84.4105 7.45333 85.2505 7C86.0905 6.53333 87.0371 6.3 88.0905 6.3C89.1438 6.3 90.0838 6.53333 90.9105 7C91.7505 7.45333 92.4038 8.09333 92.8705 8.92C93.3505 9.73333 93.5905 10.66 93.5905 11.7C93.5905 12.74 93.3505 13.6733 92.8705 14.5C92.4038 15.3133 91.7505 15.9533 90.9105 16.42C90.0838 16.8867 89.1438 17.12 88.0905 17.12ZM88.0905 15.44C88.7705 15.44 89.3771 15.2867 89.9105 14.98C90.4571 14.66 90.8838 14.22 91.1905 13.66C91.4971 13.0867 91.6505 12.4333 91.6505 11.7C91.6505 10.9667 91.4971 10.32 91.1905 9.76C90.8838 9.18667 90.4571 8.74667 89.9105 8.44C89.3771 8.13333 88.7705 7.98 88.0905 7.98C87.4105 7.98 86.7971 8.13333 86.2505 8.44C85.7171 8.74667 85.2905 9.18667 84.9705 9.76C84.6638 10.32 84.5105 10.9667 84.5105 11.7C84.5105 12.4333 84.6638 13.0867 84.9705 13.66C85.2905 14.22 85.7171 14.66 86.2505 14.98C86.7971 15.2867 87.4105 15.44 88.0905 15.44ZM106.126 6.4V17H104.306V15.4C103.919 15.9467 103.406 16.3733 102.766 16.68C102.139 16.9733 101.452 17.12 100.706 17.12C99.2924 17.12 98.1791 16.7333 97.3658 15.96C96.5524 15.1733 96.1458 14.02 96.1458 12.5V6.4H98.0658V12.28C98.0658 13.3067 98.3124 14.0867 98.8058 14.62C99.2991 15.14 100.006 15.4 100.926 15.4C101.939 15.4 102.739 15.0933 103.326 14.48C103.912 13.8667 104.206 13 104.206 11.88V6.4H106.126ZM109.781 2.16H111.701V17H109.781V2.16ZM124.947 11.76C124.947 11.9067 124.934 12.1 124.907 12.34H116.307C116.427 13.2733 116.834 14.0267 117.527 14.6C118.234 15.16 119.107 15.44 120.147 15.44C121.414 15.44 122.434 15.0133 123.207 14.16L124.267 15.4C123.787 15.96 123.187 16.3867 122.467 16.68C121.76 16.9733 120.967 17.12 120.087 17.12C118.967 17.12 117.974 16.8933 117.107 16.44C116.24 15.9733 115.567 15.3267 115.087 14.5C114.62 13.6733 114.387 12.74 114.387 11.7C114.387 10.6733 114.614 9.74667 115.067 8.92C115.534 8.09333 116.167 7.45333 116.967 7C117.78 6.53333 118.694 6.3 119.707 6.3C120.72 6.3 121.62 6.53333 122.407 7C123.207 7.45333 123.827 8.09333 124.267 8.92C124.72 9.74667 124.947 10.6933 124.947 11.76ZM119.707 7.92C118.787 7.92 118.014 8.2 117.387 8.76C116.774 9.32 116.414 10.0533 116.307 10.96H123.107C123 10.0667 122.634 9.34 122.007 8.78C121.394 8.20667 120.627 7.92 119.707 7.92ZM133.573 16.38C133.293 16.62 132.946 16.8067 132.533 16.94C132.12 17.06 131.693 17.12 131.253 17.12C130.186 17.12 129.36 16.8333 128.773 16.26C128.186 15.6867 127.893 14.8667 127.893 13.8V7.98H126.093V6.4H127.893V4.08H129.813V6.4H132.853V7.98H129.813V13.72C129.813 14.2933 129.953 14.7333 130.233 15.04C130.526 15.3467 130.94 15.5 131.473 15.5C132.06 15.5 132.56 15.3333 132.973 15L133.573 16.38ZM141.6 16.38C141.32 16.62 140.974 16.8067 140.56 16.94C140.147 17.06 139.72 17.12 139.28 17.12C138.214 17.12 137.387 16.8333 136.8 16.26C136.214 15.6867 135.92 14.8667 135.92 13.8V7.98H134.12V6.4H135.92V4.08H137.84V6.4H140.88V7.98H137.84V13.72C137.84 14.2933 137.98 14.7333 138.26 15.04C138.554 15.3467 138.967 15.5 139.5 15.5C140.087 15.5 140.587 15.3333 141 15L141.6 16.38ZM153.15 11.76C153.15 11.9067 153.137 12.1 153.11 12.34H144.51C144.63 13.2733 145.037 14.0267 145.73 14.6C146.437 15.16 147.31 15.44 148.35 15.44C149.617 15.44 150.637 15.0133 151.41 14.16L152.47 15.4C151.99 15.96 151.39 16.3867 150.67 16.68C149.963 16.9733 149.17 17.12 148.29 17.12C147.17 17.12 146.177 16.8933 145.31 16.44C144.443 15.9733 143.77 15.3267 143.29 14.5C142.823 13.6733 142.59 12.74 142.59 11.7C142.59 10.6733 142.817 9.74667 143.27 8.92C143.737 8.09333 144.37 7.45333 145.17 7C145.983 6.53333 146.897 6.3 147.91 6.3C148.923 6.3 149.823 6.53333 150.61 7C151.41 7.45333 152.03 8.09333 152.47 8.92C152.923 9.74667 153.15 10.6933 153.15 11.76ZM147.91 7.92C146.99 7.92 146.217 8.2 145.59 8.76C144.977 9.32 144.617 10.0533 144.51 10.96H151.31C151.203 10.0667 150.837 9.34 150.21 8.78C149.597 8.20667 148.83 7.92 147.91 7.92Z" fill="#F65261"/>
<path d="M14.84 7.08L14.4864 7.43356L14.4893 7.43642L14.84 7.08ZM16.08 17V17.5H16.58V17H16.08ZM11.56 17H11.06V17.5H11.56V17ZM8.98 10.2L8.60629 9.86782L8.6055 9.86871L8.98 10.2ZM8.52 17V17.5H9.02V17H8.52ZM4 17H3.5V17.5H4V17ZM4 6.06V5.56H3.5V6.06H4ZM8.3 6.06H8.8V5.56H8.3V6.06ZM8.3 7.14H7.8V8.34711L8.65355 7.49355L8.3 7.14ZM9.78 6.18L9.958 6.64724L9.958 6.64724L9.78 6.18ZM11.6 6.36C12.8385 6.36 13.7828 6.72995 14.4864 7.43355L15.1936 6.72645C14.2705 5.80338 13.0548 5.36 11.6 5.36V6.36ZM14.4893 7.43642C15.1867 8.12253 15.58 9.19776 15.58 10.76H16.58C16.58 9.04224 16.1466 7.66414 15.1907 6.72358L14.4893 7.43642ZM15.58 10.76V17H16.58V10.76H15.58ZM16.08 16.5H11.56V17.5H16.08V16.5ZM12.06 17V11.54H11.06V17H12.06ZM12.06 11.54C12.06 10.8691 11.9432 10.2761 11.6322 9.83979C11.2989 9.37229 10.7985 9.16 10.22 9.16V10.16C10.5348 10.16 10.7044 10.261 10.8178 10.4202C10.9535 10.6105 11.06 10.9576 11.06 11.54H12.06ZM10.22 9.16C9.57892 9.16 9.02662 9.39495 8.6063 9.86782L9.35371 10.5322C9.57338 10.2851 9.84775 10.16 10.22 10.16V9.16ZM8.6055 9.86871C8.17992 10.3498 8.02 11.0512 8.02 11.86H9.02C9.02 11.1488 9.16675 10.7435 9.3545 10.5313L8.6055 9.86871ZM8.02 11.86V17H9.02V11.86H8.02ZM8.52 16.5H4V17.5H8.52V16.5ZM4.5 17V6.06H3.5V17H4.5ZM4 6.56H8.3V5.56H4V6.56ZM7.8 6.06V7.14H8.8V6.06H7.8ZM8.65355 7.49355C9.03073 7.11638 9.46435 6.8353 9.958 6.64724L9.602 5.71276C8.97566 5.95136 8.42261 6.31029 7.94645 6.78645L8.65355 7.49355ZM9.958 6.64724C10.4562 6.45744 11.002 6.36 11.6 6.36V5.36C10.8913 5.36 10.2238 5.47589 9.602 5.71276L9.958 6.64724ZM29.8183 12.58V13.08H30.288L30.3173 12.6112L29.8183 12.58ZM22.2183 12.58V12.08H21.4886L21.752 12.7605L22.2183 12.58ZM23.0183 13.54L22.7587 13.9675L22.7702 13.9741L23.0183 13.54ZM25.6183 13.68L25.4489 13.2095L25.4427 13.2118L25.6183 13.68ZM26.6983 13.06L27.0533 12.7079L26.745 12.397L26.3961 12.6617L26.6983 13.06ZM29.0583 15.44L29.4283 15.7763L29.7476 15.4251L29.4133 15.0879L29.0583 15.44ZM20.7983 16.48L20.5771 16.9284L20.5819 16.9308L20.7983 16.48ZM18.4783 14.44L18.9012 14.1732L18.4783 14.44ZM18.4583 8.6L18.0354 8.33325L18.0343 8.335L18.4583 8.6ZM20.6783 6.58L20.4522 6.13404L20.4496 6.13536L20.6783 6.58ZM26.8783 6.52L26.66 6.96983L26.6626 6.97107L26.8783 6.52ZM29.0583 8.46L28.6343 8.72502L28.6373 8.72971L29.0583 8.46ZM22.7383 9.32L23.0567 9.70548L23.0567 9.70548L22.7383 9.32ZM22.1383 10.4L21.648 10.3019L21.5284 10.9H22.1383V10.4ZM25.6583 10.4V10.9H26.2717L26.148 10.2992L25.6583 10.4ZM25.0583 9.34L24.7301 9.71742L24.7398 9.72548L25.0583 9.34ZM29.3783 11.52C29.3783 11.5188 29.3783 11.5242 29.3777 11.5404C29.3771 11.5551 29.3763 11.5748 29.3751 11.6C29.3727 11.6503 29.369 11.719 29.3641 11.8067C29.3542 11.9819 29.3392 12.2291 29.3193 12.5488L30.3173 12.6112C30.3565 11.9845 30.3783 11.6071 30.3783 11.52H29.3783ZM29.8183 12.08H22.2183V13.08H29.8183V12.08ZM21.752 12.7605C21.9512 13.275 22.2897 13.6826 22.7588 13.9674L23.2778 13.1126C23.0002 12.9441 22.8054 12.7116 22.6846 12.3995L21.752 12.7605ZM22.7702 13.9741C23.2386 14.2418 23.7969 14.36 24.4183 14.36V13.36C23.9197 13.36 23.5446 13.2649 23.2664 13.1059L22.7702 13.9741ZM24.4183 14.36C24.9358 14.36 25.4 14.2959 25.7938 14.1482L25.4427 13.2118C25.1966 13.3041 24.8607 13.36 24.4183 13.36V14.36ZM25.7876 14.1504C26.1826 14.0083 26.5873 13.7718 27.0005 13.4583L26.3961 12.6617C26.036 12.9348 25.7206 13.1117 25.4489 13.2096L25.7876 14.1504ZM26.3432 13.4121L28.7032 15.7921L29.4133 15.0879L27.0533 12.7079L26.3432 13.4121ZM28.6883 15.1037C27.7454 16.1409 26.3072 16.7 24.2783 16.7V17.7C26.4894 17.7 28.2379 17.0858 29.4283 15.7763L28.6883 15.1037ZM24.2783 16.7C23.0191 16.7 21.9355 16.4712 21.0146 16.0292L20.5819 16.9308C21.6611 17.4488 22.8975 17.7 24.2783 17.7V16.7ZM21.0195 16.0316C20.0946 15.5753 19.3943 14.9551 18.9012 14.1732L18.0554 14.7068C18.6556 15.6582 19.5019 16.398 20.5771 16.9284L21.0195 16.0316ZM18.9012 14.1732C18.4077 13.3908 18.1583 12.5109 18.1583 11.52H17.1583C17.1583 12.6891 17.4556 13.7558 18.0554 14.7068L18.9012 14.1732ZM18.1583 11.52C18.1583 10.512 18.4029 9.63202 18.8823 8.865L18.0343 8.335C17.447 9.27465 17.1583 10.3414 17.1583 11.52H18.1583ZM18.8812 8.86675C19.379 8.07758 20.0511 7.46481 20.907 7.02464L20.4496 6.13536C19.4388 6.65519 18.6309 7.38909 18.0354 8.33325L18.8812 8.86675ZM20.9044 7.02595C21.7739 6.5851 22.7551 6.36 23.8583 6.36V5.36C22.6148 5.36 21.476 5.6149 20.4522 6.13405L20.9044 7.02595ZM23.8583 6.36C24.8968 6.36 25.8278 6.56598 26.66 6.96983L27.0966 6.07017C26.1154 5.59402 25.033 5.36 23.8583 5.36V6.36ZM26.6626 6.97107C27.4981 7.37067 28.152 7.95335 28.6343 8.725L29.4823 8.195C28.8979 7.25998 28.0985 6.54933 27.094 6.06893L26.6626 6.97107ZM28.6373 8.72971C29.1241 9.48959 29.3783 10.4123 29.3783 11.52H30.3783C30.3783 10.2544 30.0858 9.13708 29.4793 8.19029L28.6373 8.72971ZM23.8983 8.44C23.3365 8.44 22.8311 8.59475 22.4198 8.93452L23.0567 9.70548C23.2588 9.53858 23.5267 9.44 23.8983 9.44V8.44ZM22.4198 8.93452C22.008 9.27473 21.7593 9.74559 21.648 10.3019L22.6286 10.4981C22.704 10.1211 22.8552 9.87193 23.0567 9.70548L22.4198 8.93452ZM22.1383 10.9H25.6583V9.9H22.1383V10.9ZM26.148 10.2992C26.0356 9.75333 25.7852 9.29197 25.3767 8.95452L24.7398 9.72548C24.9447 9.89469 25.0943 10.14 25.1686 10.5008L26.148 10.2992ZM25.3864 8.9627C24.9753 8.60527 24.4665 8.44 23.8983 8.44V9.44C24.2634 9.44 24.5279 9.5414 24.7302 9.7173L25.3864 8.9627ZM39.3647 16.62L39.6118 17.0546L39.9724 16.8496L39.8375 16.4574L39.3647 16.62ZM33.0447 16.1L32.7095 16.4711L32.7129 16.474L33.0447 16.1ZM31.8047 9.96H32.3047V9.46H31.8047V9.96ZM30.3047 9.96H29.8047V10.46H30.3047V9.96ZM30.3047 6.66V6.16H29.8047V6.66H30.3047ZM31.8047 6.66V7.16H32.3047V6.66H31.8047ZM31.8047 3.6V3.1H31.3047V3.6H31.8047ZM36.3247 3.6H36.8247V3.1H36.3247V3.6ZM36.3247 6.66H35.8247V7.16H36.3247V6.66ZM38.5647 6.66H39.0647V6.16H38.5647V6.66ZM38.5647 9.96V10.46H39.0647V9.96H38.5647ZM36.3247 9.96V9.46H35.8247V9.96H36.3247ZM36.5847 13.5L36.2183 13.8402L36.2183 13.8402L36.5847 13.5ZM38.2847 13.48L38.7575 13.3174L38.5444 12.6978L38.003 13.0669L38.2847 13.48ZM39.1175 16.1854C38.5414 16.513 37.7114 16.7 36.5847 16.7V17.7C37.8046 17.7 38.828 17.5003 39.6118 17.0546L39.1175 16.1854ZM36.5847 16.7C35.1262 16.7 34.0815 16.3514 33.3765 15.726L32.7129 16.474C33.6612 17.3153 34.9765 17.7 36.5847 17.7V16.7ZM33.3798 15.7289C32.6896 15.1055 32.3047 14.1474 32.3047 12.76H31.3047C31.3047 14.3326 31.7464 15.6011 32.7095 16.4711L33.3798 15.7289ZM32.3047 12.76V9.96H31.3047V12.76H32.3047ZM31.8047 9.46H30.3047V10.46H31.8047V9.46ZM30.8047 9.96V6.66H29.8047V9.96H30.8047ZM30.3047 7.16H31.8047V6.16H30.3047V7.16ZM32.3047 6.66V3.6H31.3047V6.66H32.3047ZM31.8047 4.1H36.3247V3.1H31.8047V4.1ZM35.8247 3.6V6.66H36.8247V3.6H35.8247ZM36.3247 7.16H38.5647V6.16H36.3247V7.16ZM38.0647 6.66V9.96H39.0647V6.66H38.0647ZM38.5647 9.46H36.3247V10.46H38.5647V9.46ZM35.8247 9.96V12.72H36.8247V9.96H35.8247ZM35.8247 12.72C35.8247 13.1395 35.9352 13.5354 36.2183 13.8402L36.9511 13.1598C36.8875 13.0913 36.8247 12.9672 36.8247 12.72H35.8247ZM36.2183 13.8402C36.4962 14.1395 36.861 14.28 37.2647 14.28V13.28C37.1084 13.28 37.0199 13.2338 36.9511 13.1598L36.2183 13.8402ZM37.2647 14.28C37.7425 14.28 38.1826 14.1548 38.5664 13.8931L38.003 13.0669C37.8001 13.2052 37.5602 13.28 37.2647 13.28V14.28ZM37.8119 13.6426L38.8919 16.7826L39.8375 16.4574L38.7575 13.3174L37.8119 13.6426ZM45.1886 6.66H44.6886V7.16H45.1886V6.66ZM47.5686 6.66H48.0686V6.16H47.5686V6.66ZM47.5686 9.96V10.46H48.0686V9.96H47.5686ZM45.3286 9.96V9.46H44.8286V9.96H45.3286ZM45.3286 17V17.5H45.8286V17H45.3286ZM40.8086 17H40.3086V17.5H40.8086V17ZM40.8086 9.96H41.3086V9.46H40.8086V9.96ZM39.3086 9.96H38.8086V10.46H39.3086V9.96ZM39.3086 6.66V6.16H38.8086V6.66H39.3086ZM40.8086 6.66V7.16H41.3086V6.66H40.8086ZM42.0886 3.22L42.4365 3.57913L42.4394 3.57633L42.0886 3.22ZM47.1686 2.1L47.264 1.60919L47.264 1.60919L47.1686 2.1ZM48.3686 2.5L48.8414 2.66262L48.9792 2.26209L48.6067 2.06035L48.3686 2.5ZM47.2886 5.64L47.078 6.0935L47.581 6.32704L47.7614 5.80262L47.2886 5.64ZM45.4686 5.7L45.1038 5.35803L45.1031 5.35884L45.4686 5.7ZM48.8286 2.16V1.66H48.3286V2.16H48.8286ZM53.3486 2.16H53.8486V1.66H53.3486V2.16ZM53.3486 17V17.5H53.8486V17H53.3486ZM48.8286 17H48.3286V17.5H48.8286V17ZM45.1886 7.16H47.5686V6.16H45.1886V7.16ZM47.0686 6.66V9.96H48.0686V6.66H47.0686ZM47.5686 9.46H45.3286V10.46H47.5686V9.46ZM44.8286 9.96V17H45.8286V9.96H44.8286ZM45.3286 16.5H40.8086V17.5H45.3286V16.5ZM41.3086 17V9.96H40.3086V17H41.3086ZM40.8086 9.46H39.3086V10.46H40.8086V9.46ZM39.8086 9.96V6.66H38.8086V9.96H39.8086ZM39.3086 7.16H40.8086V6.16H39.3086V7.16ZM41.3086 6.66V6.6H40.3086V6.66H41.3086ZM41.3086 6.6C41.3086 5.27946 41.6995 4.29304 42.4365 3.57912L41.7407 2.86088C40.771 3.8003 40.3086 5.06721 40.3086 6.6H41.3086ZM42.4394 3.57633C43.1741 2.85304 44.2333 2.46 45.6886 2.46V1.46C44.0506 1.46 42.7097 1.90696 41.7378 2.86367L42.4394 3.57633ZM45.6886 2.46C46.1644 2.46 46.6257 2.5038 47.0732 2.59081L47.264 1.60919C46.7515 1.50953 46.2261 1.46 45.6886 1.46V2.46ZM47.0732 2.59081C47.5192 2.67755 47.8675 2.79721 48.1305 2.93965L48.6067 2.06035C48.2297 1.85612 47.7779 1.70912 47.264 1.60919L47.0732 2.59081ZM47.8958 2.33738L46.8158 5.47738L47.7614 5.80262L48.8414 2.66262L47.8958 2.33738ZM47.4991 5.1865C47.0813 4.99248 46.6684 4.88 46.2686 4.88V5.88C46.4821 5.88 46.7492 5.94085 47.078 6.0935L47.4991 5.1865ZM46.2686 4.88C45.8183 4.88 45.412 5.02935 45.1038 5.35803L45.8334 6.04197C45.9252 5.94398 46.0522 5.88 46.2686 5.88V4.88ZM45.1031 5.35884C44.7926 5.69149 44.6886 6.15492 44.6886 6.64H45.6886C45.6886 6.27174 45.7713 6.10851 45.8341 6.04116L45.1031 5.35884ZM44.6886 6.64V6.66H45.6886V6.64H44.6886ZM48.8286 2.66H53.3486V1.66H48.8286V2.66ZM52.8486 2.16V17H53.8486V2.16H52.8486ZM53.3486 16.5H48.8286V17.5H53.3486V16.5ZM49.3286 17V2.16H48.3286V17H49.3286ZM55.3477 6.06V5.56H54.8477V6.06H55.3477ZM59.8677 6.06H60.3677V5.56H59.8677V6.06ZM59.8677 17V17.5H60.3677V17H59.8677ZM55.3477 17H54.8477V17.5H55.3477V17ZM55.6277 4.54L55.2948 4.91315L55.3002 4.91788L55.3056 4.92246L55.6277 4.54ZM55.6277 1.24L55.9547 1.61818L55.9555 1.61752L55.6277 1.24ZM59.5877 1.2L59.2665 1.58326L59.2665 1.58326L59.5877 1.2ZM59.5877 4.52L59.9205 4.89319L59.926 4.88816L59.5877 4.52ZM55.3477 6.56H59.8677V5.56H55.3477V6.56ZM59.3677 6.06V17H60.3677V6.06H59.3677ZM59.8677 16.5H55.3477V17.5H59.8677V16.5ZM55.8477 17V6.06H54.8477V17H55.8477ZM57.6077 4.68C56.8843 4.68 56.347 4.49212 55.9497 4.15754L55.3056 4.92246C55.9216 5.44122 56.7043 5.68 57.6077 5.68V4.68ZM55.9605 4.16685C55.5745 3.82264 55.3877 3.40553 55.3877 2.88H54.3877C54.3877 3.6878 54.6941 4.37736 55.2948 4.91315L55.9605 4.16685ZM55.3877 2.88C55.3877 2.35484 55.574 1.94749 55.9547 1.61818L55.3006 0.861817C54.6947 1.38584 54.3877 2.07183 54.3877 2.88H55.3877ZM55.9555 1.61752C56.3529 1.2724 56.8881 1.08 57.6077 1.08V0.0799992C56.7005 0.0799992 55.9157 0.327594 55.2998 0.862482L55.9555 1.61752ZM57.6077 1.08C58.351 1.08 58.8863 1.26466 59.2665 1.58326L59.9088 0.816739C59.3024 0.308675 58.5177 0.0799992 57.6077 0.0799992V1.08ZM59.2665 1.58326C59.6445 1.89994 59.8277 2.292 59.8277 2.8H60.8277C60.8277 2.00133 60.5175 1.32672 59.9088 0.816739L59.2665 1.58326ZM59.8277 2.8C59.8277 3.35891 59.6356 3.79686 59.2493 4.15184L59.926 4.88816C60.5263 4.33647 60.8277 3.62775 60.8277 2.8H59.8277ZM59.2548 4.14685C58.8744 4.48614 58.3435 4.68 57.6077 4.68V5.68C58.5251 5.68 59.3142 5.43386 59.9205 4.89315L59.2548 4.14685ZM68.7711 17L68.3502 17.2698L68.4977 17.5H68.7711V17ZM67.2711 14.66L67.692 14.3902L67.2945 13.77L66.8649 14.3684L67.2711 14.66ZM65.5911 17V17.5H65.8476L65.9973 17.2916L65.5911 17ZM60.6911 17L60.2937 16.6965L59.68 17.5H60.6911V17ZM64.8311 11.58L65.2284 11.8835L65.4548 11.5871L65.2353 11.2857L64.8311 11.58ZM60.8111 6.06V5.56H59.8284L60.4069 6.35435L60.8111 6.06ZM65.9111 6.06L66.326 5.781L66.1774 5.56H65.9111V6.06ZM67.4711 8.38L67.0562 8.659L67.4608 9.26076L67.8794 8.66862L67.4711 8.38ZM69.1111 6.06V5.56H68.8522L68.7028 5.77138L69.1111 6.06ZM73.8511 6.06L74.25 6.36144L74.8556 5.56H73.8511V6.06ZM69.8311 11.38L69.4322 11.0786L69.2078 11.3755L69.4278 11.6756L69.8311 11.38ZM73.9511 17V17.5H74.9376L74.3543 16.7044L73.9511 17ZM69.192 16.7302L67.692 14.3902L66.8502 14.9298L68.3502 17.2698L69.192 16.7302ZM66.8649 14.3684L65.1849 16.7084L65.9973 17.2916L67.6773 14.9516L66.8649 14.3684ZM65.5911 16.5H60.6911V17.5H65.5911V16.5ZM61.0884 17.3035L65.2284 11.8835L64.4337 11.2765L60.2937 16.6965L61.0884 17.3035ZM65.2353 11.2857L61.2153 5.76565L60.4069 6.35435L64.4269 11.8743L65.2353 11.2857ZM60.8111 6.56H65.9111V5.56H60.8111V6.56ZM65.4962 6.339L67.0562 8.659L67.886 8.101L66.326 5.781L65.4962 6.339ZM67.8794 8.66862L69.5194 6.34862L68.7028 5.77138L67.0628 8.09138L67.8794 8.66862ZM69.1111 6.56H73.8511V5.56H69.1111V6.56ZM73.4522 5.75856L69.4322 11.0786L70.23 11.6814L74.25 6.36144L73.4522 5.75856ZM69.4278 11.6756L73.5478 17.2956L74.3543 16.7044L70.2343 11.0844L69.4278 11.6756ZM73.9511 16.5H68.7711V17.5H73.9511V16.5ZM77.4217 8.18H76.9217L77.861 8.41876L77.4217 8.18ZM78.9017 6.78L78.6818 6.33097L78.6818 6.33097L78.9017 6.78ZM81.2817 6.3H81.7817V5.8H81.2817V6.3ZM81.2817 8.16L81.2197 8.65614L81.7817 8.72639V8.16H81.2817ZM78.3817 9.08L78.0206 8.73421L78.0204 8.73439L78.3817 9.08ZM77.5017 17V17.5H78.0017V17H77.5017ZM75.5817 17H75.0817V17.5H75.5817V17ZM75.5817 6.4V5.9H75.0817V6.4H75.5817ZM77.4217 6.4H77.9217V5.9H77.4217V6.4ZM77.861 8.41876C78.1426 7.90058 78.5573 7.50544 79.1217 7.22903L78.6818 6.33097C77.9395 6.69455 77.3675 7.23275 76.9824 7.94124L77.861 8.41876ZM79.1217 7.22903C79.69 6.95067 80.4038 6.8 81.2817 6.8V5.8C80.293 5.8 79.4201 5.96933 78.6818 6.33097L79.1217 7.22903ZM80.7817 6.3V8.16H81.7817V6.3H80.7817ZM81.3437 7.66386C81.2069 7.64675 81.0364 7.64 80.8417 7.64V8.64C81.0203 8.64 81.1432 8.64658 81.2197 8.65614L81.3437 7.66386ZM80.8417 7.64C79.6946 7.64 78.7333 7.98976 78.0206 8.73421L78.7429 9.42579C79.2301 8.91691 79.9089 8.64 80.8417 8.64V7.64ZM78.0204 8.73439C77.3172 9.4695 77.0017 10.4907 77.0017 11.72H78.0017C78.0017 10.6559 78.2729 9.91717 78.743 9.42561L78.0204 8.73439ZM77.0017 11.72V17H78.0017V11.72H77.0017ZM77.5017 16.5H75.5817V17.5H77.5017V16.5ZM76.0817 17V6.4H75.0817V17H76.0817ZM75.5817 6.9H77.4217V5.9H75.5817V6.9ZM76.9217 6.4V8.18H77.9217V6.4H76.9217ZM85.2505 16.42L85.4933 15.9829L85.4933 15.9829L85.2505 16.42ZM83.2705 14.5L82.835 14.7458L82.8399 14.7541L83.2705 14.5ZM83.2705 8.92L82.8381 8.66893L82.8368 8.67116L83.2705 8.92ZM85.2505 7L85.488 7.44004L85.4933 7.43708L85.2505 7ZM90.9105 7L90.6646 7.43549L90.673 7.44001L90.9105 7ZM92.8705 8.92L92.435 9.16584L92.4399 9.17413L92.8705 8.92ZM92.8705 14.5L92.4381 14.2489L92.4368 14.2512L92.8705 14.5ZM90.9105 16.42L90.6676 15.9829L90.6647 15.9846L90.9105 16.42ZM89.9105 14.98L90.1597 15.4135L90.1631 15.4115L89.9105 14.98ZM91.1905 13.66L91.629 13.9002L91.6314 13.8958L91.1905 13.66ZM91.1905 9.76L90.7496 9.99584L90.7519 10.0002L91.1905 9.76ZM89.9105 8.44L89.6612 8.87348L89.6658 8.87607L89.9105 8.44ZM86.2505 8.44L86.0058 8.0039L86.0012 8.00655L86.2505 8.44ZM84.9705 9.76L84.5339 9.51631L84.5319 9.51984L84.9705 9.76ZM84.9705 13.66L84.5294 13.8959L84.5363 13.9081L84.9705 13.66ZM86.2505 14.98L85.9932 15.4087L85.9995 15.4125L86.0058 15.4161L86.2505 14.98ZM88.0905 16.62C87.1137 16.62 86.252 16.4044 85.4933 15.9829L85.0076 16.8571C85.9289 17.3689 86.9605 17.62 88.0905 17.62V16.62ZM85.4933 15.9829C84.7296 15.5587 84.135 14.9812 83.7011 14.2459L82.8399 14.7541C83.3659 15.6455 84.0913 16.348 85.0076 16.8571L85.4933 15.9829ZM83.7059 14.2542C83.2855 13.5096 83.0705 12.6623 83.0705 11.7H82.0705C82.0705 12.8177 82.3221 13.8371 82.8351 14.7458L83.7059 14.2542ZM83.0705 11.7C83.0705 10.7376 83.2855 9.8984 83.7042 9.16883L82.8368 8.67116C82.3221 9.56827 82.0705 10.5824 82.0705 11.7H83.0705ZM83.7029 9.17107C84.1366 8.42403 84.7292 7.84948 85.4879 7.44001L85.013 6.55999C84.0917 7.05719 83.3643 7.76264 82.8381 8.66893L83.7029 9.17107ZM85.4933 7.43708C86.252 7.01556 87.1137 6.8 88.0905 6.8V5.8C86.9605 5.8 85.9289 6.0511 85.0076 6.56292L85.4933 7.43708ZM88.0905 6.8C89.0673 6.8 89.921 7.01559 90.6647 7.43541L91.1563 6.56459C90.2466 6.05108 89.2203 5.8 88.0905 5.8V6.8ZM90.673 7.44001C91.4305 7.84883 92.015 8.42172 92.4351 9.1658L93.3059 8.6742C92.7926 7.76495 92.0704 7.05784 91.1479 6.55999L90.673 7.44001ZM92.4399 9.17413C92.8699 9.90284 93.0905 10.7401 93.0905 11.7H94.0905C94.0905 10.5799 93.831 9.56383 93.3011 8.66587L92.4399 9.17413ZM93.0905 11.7C93.0905 12.6598 92.8699 13.5052 92.4381 14.2489L93.3029 14.7511C93.831 13.8415 94.0905 12.8202 94.0905 11.7H93.0905ZM92.4368 14.2512C92.0166 14.9835 91.4301 15.5593 90.6676 15.9829L91.1533 16.8571C92.0708 16.3474 92.791 15.6431 93.3042 14.7488L92.4368 14.2512ZM90.6647 15.9846C89.921 16.4044 89.0673 16.62 88.0905 16.62V17.62C89.2203 17.62 90.2466 17.3689 91.1563 16.8554L90.6647 15.9846ZM88.0905 15.94C88.8485 15.94 89.5428 15.7682 90.1597 15.4135L89.6612 14.5465C89.2115 14.8051 88.6924 14.94 88.0905 14.94V15.94ZM90.1631 15.4115C90.7886 15.0454 91.2792 14.5389 91.629 13.9002L90.7519 13.4198C90.4884 13.9011 90.1257 14.2746 89.6579 14.5485L90.1631 15.4115ZM91.6314 13.8958C91.9816 13.2411 92.1505 12.5049 92.1505 11.7H91.1505C91.1505 12.3617 91.0127 12.9322 90.7496 13.4242L91.6314 13.8958ZM92.1505 11.7C92.1505 10.8953 91.9816 10.1638 91.629 9.51984L90.7519 10.0002C91.0126 10.4762 91.1505 11.038 91.1505 11.7H92.1505ZM91.6314 9.52417C91.2815 8.87004 90.7882 8.35906 90.1551 8.00393L89.6658 8.87607C90.1261 9.13427 90.4861 9.50329 90.7496 9.99583L91.6314 9.52417ZM90.1597 8.00655C89.5428 7.6518 88.8485 7.48 88.0905 7.48V8.48C88.6924 8.48 89.2115 8.61487 89.6612 8.87345L90.1597 8.00655ZM88.0905 7.48C87.3323 7.48 86.6335 7.65183 86.0058 8.00393L86.4951 8.87607C86.9608 8.61483 87.4887 8.48 88.0905 8.48V7.48ZM86.0012 8.00655C85.3841 8.36139 84.8949 8.86946 84.5339 9.51632L85.4071 10.0037C85.686 9.50388 86.0502 9.13194 86.4997 8.87345L86.0012 8.00655ZM84.5319 9.51984C84.1793 10.1638 84.0105 10.8953 84.0105 11.7H85.0105C85.0105 11.038 85.1483 10.4762 85.409 10.0002L84.5319 9.51984ZM84.0105 11.7C84.0105 12.5049 84.1794 13.2411 84.5296 13.8958L85.4114 13.4242C85.1482 12.9322 85.0105 12.3617 85.0105 11.7H84.0105ZM84.5363 13.9081C84.8972 14.5396 85.3836 15.043 85.9932 15.4087L86.5077 14.5513C86.0506 14.277 85.6837 13.9004 85.4046 13.4119L84.5363 13.9081ZM86.0058 15.4161C86.6335 15.7682 87.3323 15.94 88.0905 15.94V14.94C87.4887 14.94 86.9608 14.8052 86.4951 14.5439L86.0058 15.4161ZM106.126 6.4H106.626V5.9H106.126V6.4ZM106.126 17V17.5H106.626V17H106.126ZM104.306 17H103.806V17.5H104.306V17ZM104.306 15.4H104.806V13.8272L103.898 15.1113L104.306 15.4ZM102.766 16.68L102.978 17.1329L102.982 17.1309L102.766 16.68ZM97.3658 15.96L97.0182 16.3194L97.0213 16.3224L97.3658 15.96ZM96.1458 6.4V5.9H95.6458V6.4H96.1458ZM98.0658 6.4H98.5658V5.9H98.0658V6.4ZM98.8058 14.62L98.4387 14.9595L98.443 14.9641L98.8058 14.62ZM103.326 14.48L103.687 14.8256L103.687 14.8256L103.326 14.48ZM104.206 6.4V5.9H103.706V6.4H104.206ZM105.626 6.4V17H106.626V6.4H105.626ZM106.126 16.5H104.306V17.5H106.126V16.5ZM104.806 17V15.4H103.806V17H104.806ZM103.898 15.1113C103.563 15.5842 103.118 15.957 102.55 16.2291L102.982 17.1309C103.694 16.7897 104.275 16.3091 104.714 15.6887L103.898 15.1113ZM102.554 16.2272C101.999 16.487 101.385 16.62 100.706 16.62V17.62C101.52 17.62 102.28 17.4596 102.978 17.1328L102.554 16.2272ZM100.706 16.62C99.3859 16.62 98.4082 16.2613 97.7103 15.5976L97.0213 16.3224C97.95 17.2054 99.199 17.62 100.706 17.62V16.62ZM97.7134 15.6006C97.0274 14.9371 96.6458 13.9327 96.6458 12.5H95.6458C95.6458 14.1073 96.0775 15.4096 97.0182 16.3194L97.7134 15.6006ZM96.6458 12.5V6.4H95.6458V12.5H96.6458ZM96.1458 6.9H98.0658V5.9H96.1458V6.9ZM97.5658 6.4V12.28H98.5658V6.4H97.5658ZM97.5658 12.28C97.5658 13.3806 97.8302 14.3016 98.4387 14.9595L99.1728 14.2805C98.7947 13.8717 98.5658 13.2328 98.5658 12.28H97.5658ZM98.443 14.9641C99.0557 15.6099 99.9097 15.9 100.926 15.9V14.9C100.102 14.9 99.5425 14.6701 99.1685 14.2759L98.443 14.9641ZM100.926 15.9C102.047 15.9 102.988 15.5565 103.687 14.8256L102.964 14.1344C102.49 14.6302 101.831 14.9 100.926 14.9V15.9ZM103.687 14.8256C104.388 14.0925 104.706 13.0864 104.706 11.88H103.706C103.706 12.9136 103.437 13.6408 102.964 14.1344L103.687 14.8256ZM104.706 11.88V6.4H103.706V11.88H104.706ZM104.206 6.9H106.126V5.9H104.206V6.9ZM109.781 2.16V1.66H109.281V2.16H109.781ZM111.701 2.16H112.201V1.66H111.701V2.16ZM111.701 17V17.5H112.201V17H111.701ZM109.781 17H109.281V17.5H109.781V17ZM109.781 2.66H111.701V1.66H109.781V2.66ZM111.201 2.16V17H112.201V2.16H111.201ZM111.701 16.5H109.781V17.5H111.701V16.5ZM110.281 17V2.16H109.281V17H110.281ZM124.907 12.34V12.84H125.354L125.404 12.3952L124.907 12.34ZM116.307 12.34V11.84H115.738L115.811 12.4038L116.307 12.34ZM117.527 14.6L117.208 14.9854L117.216 14.9919L117.527 14.6ZM123.207 14.16L123.587 13.8351L123.218 13.4033L122.836 13.8242L123.207 14.16ZM124.267 15.4L124.647 15.7254L124.925 15.4004L124.647 15.0751L124.267 15.4ZM122.467 16.68L122.278 16.2169L122.275 16.2182L122.467 16.68ZM117.107 16.44L116.87 16.8803L116.875 16.883L117.107 16.44ZM115.087 14.5L114.651 14.7458L114.654 14.7511L115.087 14.5ZM115.067 8.92L114.631 8.67418L114.628 8.67958L115.067 8.92ZM116.967 7L117.213 7.43502L117.216 7.43368L116.967 7ZM122.407 7L122.152 7.43011L122.16 7.43501L122.407 7ZM124.267 8.92L123.825 9.15494L123.828 9.16042L124.267 8.92ZM117.387 8.76L117.054 8.38715L117.05 8.39076L117.387 8.76ZM116.307 10.96L115.81 10.9016L115.745 11.46H116.307V10.96ZM123.107 10.96V11.46H123.67L123.603 10.9007L123.107 10.96ZM122.007 8.78L121.665 9.14536L121.674 9.15283L122.007 8.78ZM124.447 11.76C124.447 11.8803 124.436 12.053 124.41 12.2848L125.404 12.3952C125.431 12.147 125.447 11.933 125.447 11.76H124.447ZM124.907 11.84H116.307V12.84H124.907V11.84ZM115.811 12.4038C115.946 13.4565 116.412 14.3272 117.208 14.9853L117.846 14.2147C117.255 13.7262 116.907 13.0902 116.803 12.2762L115.811 12.4038ZM117.216 14.9919C118.025 15.6324 119.012 15.94 120.147 15.94V14.94C119.201 14.94 118.442 14.6876 117.837 14.2081L117.216 14.9919ZM120.147 15.94C121.539 15.94 122.699 15.4648 123.577 14.4958L122.836 13.8242C122.168 14.5619 121.288 14.94 120.147 14.94V15.94ZM122.827 14.4849L123.887 15.7249L124.647 15.0751L123.587 13.8351L122.827 14.4849ZM123.887 15.0746C123.462 15.5709 122.929 15.952 122.278 16.217L122.656 17.143C123.445 16.8214 124.112 16.3491 124.647 15.7254L123.887 15.0746ZM122.275 16.2182C121.638 16.4828 120.911 16.62 120.087 16.62V17.62C121.023 17.62 121.883 17.4639 122.659 17.1418L122.275 16.2182ZM120.087 16.62C119.036 16.62 118.124 16.4078 117.339 15.997L116.875 16.883C117.823 17.3789 118.898 17.62 120.087 17.62V16.62ZM117.344 15.9998C116.556 15.5755 115.951 14.9932 115.519 14.2489L114.654 14.7511C115.182 15.6601 115.924 16.3711 116.87 16.8802L117.344 15.9998ZM115.522 14.2542C115.102 13.5096 114.887 12.6623 114.887 11.7H113.887C113.887 12.8177 114.138 13.8371 114.651 14.7458L115.522 14.2542ZM114.887 11.7C114.887 10.7497 115.096 9.90695 115.505 9.16042L114.628 8.67958C114.131 9.58638 113.887 10.597 113.887 11.7H114.887ZM115.502 9.1658C115.926 8.4155 116.495 7.84209 117.213 7.43501L116.72 6.56499C115.839 7.06457 115.141 7.77117 114.631 8.6742L115.502 9.1658ZM117.216 7.43368C117.947 7.01395 118.774 6.8 119.707 6.8V5.8C118.613 5.8 117.613 6.05272 116.718 6.56632L117.216 7.43368ZM119.707 6.8C120.64 6.8 121.45 7.01399 122.152 7.43003L122.662 6.56997C121.79 6.05268 120.8 5.8 119.707 5.8V6.8ZM122.16 7.43501C122.876 7.84061 123.429 8.41047 123.826 9.15492L124.708 8.68508C124.224 7.77619 123.538 7.06606 122.653 6.56499L122.16 7.43501ZM123.828 9.16042C124.236 9.90416 124.447 10.7662 124.447 11.76H125.447C125.447 10.6205 125.204 9.58917 124.705 8.67958L123.828 9.16042ZM119.707 7.42C118.677 7.42 117.781 7.73725 117.054 8.38717L117.72 9.13283C118.246 8.66274 118.897 8.42 119.707 8.42V7.42ZM117.05 8.39076C116.339 9.04008 115.93 9.88825 115.81 10.9016L116.803 11.0184C116.898 10.2184 117.209 9.59992 117.724 9.12924L117.05 8.39076ZM116.307 11.46H123.107V10.46H116.307V11.46ZM123.603 10.9007C123.483 9.89573 123.064 9.05432 122.34 8.40717L121.674 9.15283C122.203 9.62568 122.517 10.2376 122.61 11.0193L123.603 10.9007ZM122.348 8.41474C121.633 7.7462 120.74 7.42 119.707 7.42V8.42C120.513 8.42 121.154 8.66713 121.665 9.14526L122.348 8.41474ZM133.573 16.38L133.898 16.7596L134.179 16.5193L134.032 16.1806L133.573 16.38ZM132.533 16.94L132.672 17.4202L132.679 17.4181L132.686 17.4159L132.533 16.94ZM128.773 16.26L128.424 16.6176L128.424 16.6176L128.773 16.26ZM127.893 7.98H128.393V7.48H127.893V7.98ZM126.093 7.98H125.593V8.48H126.093V7.98ZM126.093 6.4V5.9H125.593V6.4H126.093ZM127.893 6.4V6.9H128.393V6.4H127.893ZM127.893 4.08V3.58H127.393V4.08H127.893ZM129.813 4.08H130.313V3.58H129.813V4.08ZM129.813 6.4H129.313V6.9H129.813V6.4ZM132.853 6.4H133.353V5.9H132.853V6.4ZM132.853 7.98V8.48H133.353V7.98H132.853ZM129.813 7.98V7.48H129.313V7.98H129.813ZM130.233 15.04L129.864 15.3772L129.872 15.3856L130.233 15.04ZM132.973 15L133.432 14.8006L133.17 14.1989L132.659 14.6108L132.973 15ZM133.248 16.0004C133.026 16.1903 132.741 16.3476 132.379 16.4641L132.686 17.4159C133.152 17.2657 133.56 17.0497 133.898 16.7596L133.248 16.0004ZM132.394 16.4598C132.027 16.5664 131.647 16.62 131.253 16.62V17.62C131.739 17.62 132.213 17.5536 132.672 17.4202L132.394 16.4598ZM131.253 16.62C130.276 16.62 129.59 16.3595 129.122 15.9024L128.424 16.6176C129.129 17.3072 130.096 17.62 131.253 17.62V16.62ZM129.122 15.9024C128.659 15.4491 128.393 14.7744 128.393 13.8H127.393C127.393 14.959 127.714 15.9242 128.424 16.6176L129.122 15.9024ZM128.393 13.8V7.98H127.393V13.8H128.393ZM127.893 7.48H126.093V8.48H127.893V7.48ZM126.593 7.98V6.4H125.593V7.98H126.593ZM126.093 6.9H127.893V5.9H126.093V6.9ZM128.393 6.4V4.08H127.393V6.4H128.393ZM127.893 4.58H129.813V3.58H127.893V4.58ZM129.313 4.08V6.4H130.313V4.08H129.313ZM129.813 6.9H132.853V5.9H129.813V6.9ZM132.353 6.4V7.98H133.353V6.4H132.353ZM132.853 7.48H129.813V8.48H132.853V7.48ZM129.313 7.98V13.72H130.313V7.98H129.313ZM129.313 13.72C129.313 14.3703 129.472 14.9483 129.864 15.3771L130.602 14.7029C130.434 14.5184 130.313 14.2164 130.313 13.72H129.313ZM129.872 15.3856C130.282 15.8149 130.84 16 131.473 16V15C131.039 15 130.77 14.8784 130.594 14.6944L129.872 15.3856ZM131.473 16C132.161 16 132.775 15.8018 133.287 15.3892L132.659 14.6108C132.344 14.8648 131.958 15 131.473 15V16ZM132.514 15.1994L133.114 16.5794L134.032 16.1806L133.432 14.8006L132.514 15.1994ZM141.6 16.38L141.926 16.7596L142.206 16.5193L142.059 16.1806L141.6 16.38ZM140.56 16.94L140.7 17.4202L140.707 17.4181L140.714 17.4159L140.56 16.94ZM136.8 16.26L136.451 16.6176L136.451 16.6176L136.8 16.26ZM135.92 7.98H136.42V7.48H135.92V7.98ZM134.12 7.98H133.62V8.48H134.12V7.98ZM134.12 6.4V5.9H133.62V6.4H134.12ZM135.92 6.4V6.9H136.42V6.4H135.92ZM135.92 4.08V3.58H135.42V4.08H135.92ZM137.84 4.08H138.34V3.58H137.84V4.08ZM137.84 6.4H137.34V6.9H137.84V6.4ZM140.88 6.4H141.38V5.9H140.88V6.4ZM140.88 7.98V8.48H141.38V7.98H140.88ZM137.84 7.98V7.48H137.34V7.98H137.84ZM138.26 15.04L137.891 15.3772L137.899 15.3856L138.26 15.04ZM141 15L141.459 14.8006L141.197 14.1989L140.686 14.6108L141 15ZM141.275 16.0004C141.053 16.1903 140.768 16.3476 140.407 16.4641L140.714 17.4159C141.179 17.2657 141.587 17.0497 141.926 16.7596L141.275 16.0004ZM140.421 16.4598C140.054 16.5664 139.674 16.62 139.28 16.62V17.62C139.766 17.62 140.24 17.5536 140.7 17.4202L140.421 16.4598ZM139.28 16.62C138.304 16.62 137.617 16.3595 137.15 15.9024L136.451 16.6176C137.156 17.3072 138.124 17.62 139.28 17.62V16.62ZM137.15 15.9024C136.686 15.4491 136.42 14.7744 136.42 13.8H135.42C135.42 14.959 135.741 15.9242 136.451 16.6176L137.15 15.9024ZM136.42 13.8V7.98H135.42V13.8H136.42ZM135.92 7.48H134.12V8.48H135.92V7.48ZM134.62 7.98V6.4H133.62V7.98H134.62ZM134.12 6.9H135.92V5.9H134.12V6.9ZM136.42 6.4V4.08H135.42V6.4H136.42ZM135.92 4.58H137.84V3.58H135.92V4.58ZM137.34 4.08V6.4H138.34V4.08H137.34ZM137.84 6.9H140.88V5.9H137.84V6.9ZM140.38 6.4V7.98H141.38V6.4H140.38ZM140.88 7.48H137.84V8.48H140.88V7.48ZM137.34 7.98V13.72H138.34V7.98H137.34ZM137.34 13.72C137.34 14.3703 137.499 14.9483 137.891 15.3771L138.63 14.7029C138.461 14.5184 138.34 14.2164 138.34 13.72H137.34ZM137.899 15.3856C138.31 15.8149 138.868 16 139.5 16V15C139.066 15 138.798 14.8784 138.622 14.6944L137.899 15.3856ZM139.5 16C140.188 16 140.803 15.8018 141.314 15.3892L140.686 14.6108C140.371 14.8648 139.986 15 139.5 15V16ZM140.542 15.1994L141.142 16.5794L142.059 16.1806L141.459 14.8006L140.542 15.1994ZM153.11 12.34V12.84H153.558L153.607 12.3952L153.11 12.34ZM144.51 12.34V11.84H143.942L144.014 12.4038L144.51 12.34ZM145.73 14.6L145.411 14.9854L145.419 14.9919L145.73 14.6ZM151.41 14.16L151.79 13.8351L151.421 13.4033L151.04 13.8242L151.41 14.16ZM152.47 15.4L152.85 15.7254L153.128 15.4004L152.85 15.0751L152.47 15.4ZM150.67 16.68L150.481 16.2169L150.478 16.2182L150.67 16.68ZM145.31 16.44L145.073 16.8803L145.078 16.883L145.31 16.44ZM143.29 14.5L142.855 14.7458L142.858 14.7511L143.29 14.5ZM143.27 8.92L142.835 8.67418L142.832 8.67958L143.27 8.92ZM145.17 7L145.417 7.43502L145.419 7.43368L145.17 7ZM150.61 7L150.355 7.43011L150.363 7.43501L150.61 7ZM152.47 8.92L152.029 9.15494L152.032 9.16042L152.47 8.92ZM145.59 8.76L145.257 8.38715L145.253 8.39076L145.59 8.76ZM144.51 10.96L144.013 10.9016L143.948 11.46H144.51V10.96ZM151.31 10.96V11.46H151.873L151.806 10.9007L151.31 10.96ZM150.21 8.78L149.868 9.14536L149.877 9.15283L150.21 8.78ZM152.65 11.76C152.65 11.8803 152.639 12.053 152.613 12.2848L153.607 12.3952C153.635 12.147 153.65 11.933 153.65 11.76H152.65ZM153.11 11.84H144.51V12.84H153.11V11.84ZM144.014 12.4038C144.149 13.4565 144.615 14.3272 145.411 14.9853L146.049 14.2147C145.458 13.7262 145.111 13.0902 145.006 12.2762L144.014 12.4038ZM145.419 14.9919C146.228 15.6324 147.215 15.94 148.35 15.94V14.94C147.405 14.94 146.646 14.6876 146.041 14.2081L145.419 14.9919ZM148.35 15.94C149.742 15.94 150.902 15.4648 151.78 14.4958L151.04 13.8242C150.371 14.5619 149.491 14.94 148.35 14.94V15.94ZM151.03 14.4849L152.09 15.7249L152.85 15.0751L151.79 13.8351L151.03 14.4849ZM152.09 15.0746C151.665 15.5709 151.132 15.952 150.481 16.217L150.859 17.143C151.648 16.8214 152.315 16.3491 152.85 15.7254L152.09 15.0746ZM150.478 16.2182C149.841 16.4828 149.114 16.62 148.29 16.62V17.62C149.226 17.62 150.086 17.4639 150.862 17.1418L150.478 16.2182ZM148.29 16.62C147.239 16.62 146.327 16.4078 145.542 15.997L145.078 16.883C146.026 17.3789 147.101 17.62 148.29 17.62V16.62ZM145.547 15.9998C144.759 15.5755 144.155 14.9932 143.722 14.2489L142.858 14.7511C143.385 15.6601 144.127 16.3711 145.073 16.8802L145.547 15.9998ZM143.725 14.2542C143.305 13.5096 143.09 12.6623 143.09 11.7H142.09C142.09 12.8177 142.342 13.8371 142.855 14.7458L143.725 14.2542ZM143.09 11.7C143.09 10.7497 143.299 9.90695 143.708 9.16042L142.832 8.67958C142.334 9.58638 142.09 10.597 142.09 11.7H143.09ZM143.705 9.1658C144.129 8.4155 144.698 7.84209 145.417 7.43501L144.923 6.56499C144.042 7.06457 143.344 7.77117 142.835 8.6742L143.705 9.1658ZM145.419 7.43368C146.15 7.01395 146.977 6.8 147.91 6.8V5.8C146.817 5.8 145.816 6.05272 144.921 6.56632L145.419 7.43368ZM147.91 6.8C148.844 6.8 149.654 7.01399 150.355 7.43003L150.865 6.56997C149.993 6.05268 149.003 5.8 147.91 5.8V6.8ZM150.363 7.43501C151.079 7.84061 151.632 8.41047 152.029 9.15492L152.911 8.68508C152.428 7.77619 151.741 7.06606 150.857 6.56499L150.363 7.43501ZM152.032 9.16042C152.439 9.90416 152.65 10.7662 152.65 11.76H153.65C153.65 10.6205 153.407 9.58917 152.908 8.67958L152.032 9.16042ZM147.91 7.42C146.88 7.42 145.984 7.73725 145.257 8.38717L145.923 9.13283C146.449 8.66274 147.1 8.42 147.91 8.42V7.42ZM145.253 8.39076C144.542 9.04008 144.133 9.88825 144.013 10.9016L145.007 11.0184C145.101 10.2184 145.412 9.59992 145.927 9.12924L145.253 8.39076ZM144.51 11.46H151.31V10.46H144.51V11.46ZM151.806 10.9007C151.686 9.89573 151.267 9.05432 150.543 8.40717L149.877 9.15283C150.406 9.62568 150.72 10.2376 150.814 11.0193L151.806 10.9007ZM150.551 8.41474C149.836 7.7462 148.944 7.42 147.91 7.42V8.42C148.716 8.42 149.357 8.66713 149.869 9.14526L150.551 8.41474Z" fill="black"/>
</g>
<defs>
<filter id="filter0_d_0_65" x="0" y="0.580078" width="157.15" height="24.6191" filterUnits="userSpaceOnUse" color-interpolation-filters="sRGB">
<feFlood flood-opacity="0" result="BackgroundImageFix"/>
<feColorMatrix in="SourceAlpha" type="matrix" values="0 0 0 0 0 0 0 0 0 0 0 0 0 0 0 0 0 0 127 0" result="hardAlpha"/>
<feOffset dy="4"/>
<feGaussianBlur stdDeviation="2"/>
<feComposite in2="hardAlpha" operator="out"/>
<feColorMatrix type="matrix" values="0 0 0 0 0 0 0 0 0 0 0 0 0 0 0 0 0 0 0.25 0"/>
<feBlend mode="normal" in2="BackgroundImageFix" result="effect1_dropShadow_0_65"/>
<feBlend mode="normal" in="SourceGraphic" in2="effect1_dropShadow_0_65" result="shape"/>
</filter>
</defs>
</svg>
